<svg xmlns="http://www.w3.org/2000/svg" viewBox="0 0 64 64" width="64" height="64">
  <!-- Background circle -->
  <circle cx="32" cy="32" r="30" fill="#ffdae9" stroke="#ff85a2" stroke-width="3"/>

  <!-- Center sparkle star (4-pointed) -->
  <path d="M32 14 L34.5 29.5 L50 32 L34.5 34.5 L32 50 L29.5 34.5 L14 32 L29.5 29.5 Z" fill="#ff85a2"/>

  <!-- Small dots around -->
  <circle cx="20" cy="20" r="2.5" fill="#ff85a2" opacity="0.7"/>
  <circle cx="44" cy="20" r="2.5" fill="#ff85a2" opacity="0.7"/>
  <circle cx="20" cy="44" r="2.5" fill="#ff85a2" opacity="0.7"/>
  <circle cx="44" cy="44" r="2.5" fill="#ff85a2" opacity="0.7"/>

  <!-- Tiny sparkle top-right -->
  <path d="M47 13 L48 17 L52 18 L48 19 L47 23 L46 19 L42 18 L46 17 Z" fill="#ffb3c6" opacity="0.9"/>

  <!-- Tiny sparkle bottom-left -->
  <path d="M17 41 L18 45 L22 46 L18 47 L17 51 L16 47 L12 46 L16 45 Z" fill="#ffb3c6" opacity="0.9"/>
</svg>
